<?xml version="1.0" encoding="UTF-8"?>
<!DOCTYPE svg PUBLIC "-//W3C//DTD SVG 1.1//EN" "http://www.w3.org/Graphics/SVG/1.1/DTD/svg11.dtd">
<!-- Creator: CorelDRAW 2017 -->
<svg xmlns="http://www.w3.org/2000/svg" xml:space="preserve" width="15.8749mm" height="15.875mm" version="1.1" style="shape-rendering:geometricPrecision; text-rendering:geometricPrecision; image-rendering:optimizeQuality; fill-rule:evenodd; clip-rule:evenodd"
viewBox="0 0 61287 61287"
 xmlns:xlink="http://www.w3.org/1999/xlink">
 <defs>
  <style type="text/css">
   <![CDATA[
    .fil0 {fill:#2B2A29}
   ]]>
  </style>
 </defs>
 <g id="Layer_x0020_1">
  <metadata id="CorelCorpID_0Corel-Layer"/>
  <path class="fil0" d="M0 0l61287 0 0 61287 -61287 0 0 -61287zm16256 50474l24816 0c-335,-774 -893,-1623 -1293,-2338l-2612 -4566c-455,-789 -1040,-2183 -1520,-2183 -8354,0 -18379,-127 -26813,3l-447 14c311,754 1039,1904 1480,2652 553,937 1019,1782 1573,2734 1084,1863 1902,3683 4816,3683zm412 -23859c-99,751 -4139,7096 -4588,8327l20115 24 -350 -854 -2521 -4246c-1099,-1898 -6831,-12203 -7204,-12512 -1098,1417 -4747,8779 -5453,9261zm21775 6390l10060 17374 2800 -4955c2264,-3912 2032,-4421 -128,-8202 -605,-1058 -3995,-6743 -4086,-7393 -419,-284 -3267,-5494 -3733,-6335 -1206,-2177 -2411,-4290 -3644,-6409 -1231,-2116 -2394,-4979 -4234,-5821 -1298,-594 -3070,-416 -4619,-416 -1565,0 -3486,-99 -5022,34l12606 22123z"/>
 </g>
</svg>
