<svg id="Layer_3" data-name="Layer 3" xmlns="http://www.w3.org/2000/svg" viewBox="0 0 126.26 113.68"><defs><style>.cls-1,.cls-2,.cls-3{fill:none;stroke:#1d1d1b;stroke-width:2px;}.cls-1,.cls-2{stroke-miterlimit:10;}.cls-2,.cls-3{stroke-linecap:round;}.cls-3{stroke-linejoin:round;}</style></defs><path class="cls-1" d="M16.56,1h94.17a10.4,10.4,0,0,1,10.4,10.4V77.07a0,0,0,0,1,0,0H6.16a0,0,0,0,1,0,0V11.4A10.4,10.4,0,0,1,16.56,1Z"/><rect class="cls-1" x="1" y="96.42" width="124.26" height="16.26" rx="8.13"/><polyline class="cls-1" points="125.26 105.13 121.14 77.07 6.16 77.07 1 103.97"/><line class="cls-2" x1="68.7" y1="15.22" x2="60.57" y2="63.42"/><polyline class="cls-3" points="47.73 24.15 35.97 40.12 47.73 54.49"/><polyline class="cls-3" points="82.74 24.15 94.5 40.12 82.74 54.49"/></svg>