<?xml version="1.0" encoding="UTF-8"?>
<!DOCTYPE svg PUBLIC "-//W3C//DTD SVG 1.1//EN" "http://www.w3.org/Graphics/SVG/1.1/DTD/svg11.dtd">
<!-- Creator: CorelDRAW 2017 -->
<svg xmlns="http://www.w3.org/2000/svg" xml:space="preserve" width="15.8923mm" height="15.875mm" version="1.1" style="shape-rendering:geometricPrecision; text-rendering:geometricPrecision; image-rendering:optimizeQuality; fill-rule:evenodd; clip-rule:evenodd"
viewBox="0 0 655 655"
 xmlns:xlink="http://www.w3.org/1999/xlink">
 <defs>
  <style type="text/css">
   <![CDATA[
    .fil0 {fill:#2B2A29}
   ]]>
  </style>
 </defs>
 <g id="Layer_x0020_1">
  <metadata id="CorelCorpID_0Corel-Layer"/>
  <path class="fil0" d="M0 0l655 0c0,110 2,222 0,332 -1,-79 0,-22 0,11l0 312 -289 0c30,-6 42,-13 50,-16 -3,-2 -6,-5 -7,-9 -5,-19 3,-93 -4,-124 -4,-19 -11,-20 -19,-32 20,0 45,-7 63,-14 36,-14 64,-39 76,-77 35,-104 -21,-153 -22,-158 0,-2 3,-10 4,-15 1,-6 2,-11 2,-17 0,-38 -5,-35 -10,-55 -23,0 -28,3 -44,10 -26,11 -27,15 -43,23 -4,2 -4,1 -9,0 -22,-6 -47,-8 -70,-10 -11,-1 -16,1 -26,1 -21,0 -38,5 -57,9 -8,2 -21,-12 -44,-21 -16,-6 -29,-13 -47,-13 -10,0 -15,52 -11,73 5,19 5,10 -5,26 -29,42 -30,99 -13,147 5,14 11,27 20,37 22,26 51,41 85,48 9,2 22,4 32,5 -1,5 -6,7 -9,12 -11,17 -7,30 -15,34 -12,7 -24,7 -40,7 -36,2 -48,-35 -64,-50 -12,-11 -37,-27 -53,-16 1,7 7,13 13,16 18,11 28,29 36,48 17,39 50,41 89,41 9,0 14,-2 22,-3l0 60c0,7 -1,13 -8,16 11,4 28,13 52,16l-291 0 0 -655z"/>
 </g>
</svg>
