<?xml version="1.0" encoding="UTF-8"?>
<!DOCTYPE svg PUBLIC "-//W3C//DTD SVG 1.1//EN" "http://www.w3.org/Graphics/SVG/1.1/DTD/svg11.dtd">
<!-- Creator: CorelDRAW 2017 -->
<svg xmlns="http://www.w3.org/2000/svg" xml:space="preserve" width="15.875mm" height="15.875mm" version="1.1" style="shape-rendering:geometricPrecision; text-rendering:geometricPrecision; image-rendering:optimizeQuality; fill-rule:evenodd; clip-rule:evenodd"
viewBox="0 0 204 204"
 xmlns:xlink="http://www.w3.org/1999/xlink">
 <defs>
  <style type="text/css">
   <![CDATA[
    .fil0 {fill:#2B2A29}
   ]]>
  </style>
 </defs>
 <g id="Layer_x0020_1">
  <metadata id="CorelCorpID_0Corel-Layer"/>
  <path class="fil0" d="M204 0l-204 0 0 204 204 0 0 -204zm-179 62l0 80c0,7 6,13 14,13l5 0 0 -76c3,2 20,16 25,20 10,8 21,17 30,24 1,1 1,1 2,2l7 -5c2,-2 4,-4 7,-5l42 -32 0 74c6,0 13,1 17,-5 2,-3 4,-6 4,-11l0 -74c0,-10 -6,-16 -16,-16 -1,0 -13,10 -15,12l-37 31c-3,2 -5,4 -7,6l-52 -43c-1,-1 -2,-2 -4,-3 -1,-1 -1,-1 -2,-2 -2,-2 -1,-1 -6,-1 -8,0 -14,6 -14,13z"/>
 </g>
</svg>
