<svg id="Layer_1" data-name="Layer 1" xmlns="http://www.w3.org/2000/svg" viewBox="0 0 116.33 113.99"><defs><style>.cls-1,.cls-2,.cls-3{fill:none;stroke:#1d1d1b;stroke-width:2px;}.cls-1,.cls-3{stroke-miterlimit:10;}.cls-2,.cls-3{stroke-linecap:round;}.cls-2{stroke-linejoin:round;}</style></defs><path class="cls-1" d="M42.69,97.32H73.58A5.64,5.64,0,0,1,79.22,103v10a0,0,0,0,1,0,0H37.05a0,0,0,0,1,0,0V103A5.64,5.64,0,0,1,42.69,97.32Z"/><circle class="cls-1" cx="58.14" cy="72.95" r="7.37"/><path class="cls-2" d="M88.74,114.53c.48-3.67,1.52-9.84,3.32-13.45a32.68,32.68,0,0,1,12.33-13.34L75,48.41,45.56,87.74a32.68,32.68,0,0,1,12.33,13.34c1.81,3.63,2.82,9.72,3.28,13.31" transform="translate(-16.84 -18.01)"/><line class="cls-1" x1="58.14" y1="30.4" x2="58.14" y2="65.57"/><circle class="cls-1" cx="58.14" cy="10.24" r="7.37"/><rect class="cls-2" x="1" y="1" width="18.33" height="18.33"/><circle class="cls-1" cx="17.54" cy="58.12" r="7.37"/><path class="cls-1" d="M67.65,29C50,32.71,35.72,48.56,34.22,67.82" transform="translate(-16.84 -18.01)"/><line class="cls-1" x1="19.33" y1="10.16" x2="50.76" y2="10.17"/><rect class="cls-2" x="113.83" y="19.01" width="18.33" height="18.33" transform="translate(229.16 38.34) rotate(180)"/><circle class="cls-3" cx="98.78" cy="58.12" r="7.37"/><path class="cls-3" d="M82.35,29c17.67,3.72,31.93,19.57,33.43,38.83" transform="translate(-16.84 -18.01)"/><line class="cls-3" x1="96.99" y1="10.16" x2="65.56" y2="10.17"/></svg>