<?xml version="1.0" encoding="UTF-8"?>
<!DOCTYPE svg PUBLIC "-//W3C//DTD SVG 1.1//EN" "http://www.w3.org/Graphics/SVG/1.1/DTD/svg11.dtd">
<!-- Creator: CorelDRAW 2017 -->
<svg xmlns="http://www.w3.org/2000/svg" xml:space="preserve" width="15.875mm" height="15.875mm" version="1.1" style="shape-rendering:geometricPrecision; text-rendering:geometricPrecision; image-rendering:optimizeQuality; fill-rule:evenodd; clip-rule:evenodd"
viewBox="0 0 289 289"
 xmlns:xlink="http://www.w3.org/1999/xlink">
 <defs>
  <style type="text/css">
   <![CDATA[
    .fil0 {fill:#2B2A29}
   ]]>
  </style>
 </defs>
 <g id="Layer_x0020_1">
  <metadata id="CorelCorpID_0Corel-Layer"/>
  <path class="fil0" d="M226 213l0 -56c0,-30 -16,-44 -38,-44 -17,0 -25,10 -30,16l0 -14 -33 0c0,9 0,99 0,99l33 0 0 -55c0,-3 0,-6 1,-8 2,-6 8,-12 17,-12 12,0 17,9 17,22l0 53 33 0zm-134 -112c11,0 19,-8 19,-17 0,-10 -7,-17 -18,-17 -11,0 -19,7 -19,17 0,9 7,17 18,17l0 0zm16 112l0 -99 -33 0 0 99 33 0zm-108 -213l289 0 0 289 -289 0 0 -289z"/>
 </g>
</svg>
