<svg id="Layer_2" data-name="Layer 2" xmlns="http://www.w3.org/2000/svg" viewBox="0 0 119.24 115.05"><defs><style>.cls-1{fill:none;stroke-width:2px;}.cls-1,.cls-2{stroke:#1d1d1b;stroke-miterlimit:10;}.cls-2,.cls-3{fill:#1d1d1b;}</style></defs><rect class="cls-1" x="1" y="1" width="117.24" height="113.05" rx="7.91"/><line class="cls-1" x1="1" y1="38.22" x2="118.24" y2="38.22"/><circle class="cls-2" cx="16.59" cy="20.71" r="3.14"/><circle class="cls-2" cx="29.79" cy="20.71" r="3.14"/><circle class="cls-2" cx="42" cy="20.71" r="3.14"/><path class="cls-3" d="M45.5,71.47v24c0,9.08,4.27,12.92,10,12.92,6.37,0,10.45-4,10.45-12.92v-24h5.61V95.08c0,12.44-6.95,17.55-16.25,17.55-8.8,0-15.43-4.75-15.43-17.31V71.47Z" transform="translate(-15.38 -17.47)"/><path class="cls-3" d="M107.92,112l-5.49-9c-2.23-3.42-3.63-5.64-5-8h-.13c-1.21,2.35-2.42,4.51-4.65,8L87.51,112H81.14L94.27,91.48l-12.62-20h6.44L93.76,81c1.6,2.65,2.81,4.69,3.95,6.85h.2c1.21-2.4,2.29-4.26,3.88-6.85l5.87-9.49H114L101,91.18,114.35,112Z" transform="translate(-15.38 -17.47)"/></svg>