<?xml version="1.0" encoding="UTF-8"?>
<!DOCTYPE svg PUBLIC "-//W3C//DTD SVG 1.1//EN" "http://www.w3.org/Graphics/SVG/1.1/DTD/svg11.dtd">
<!-- Creator: CorelDRAW 2017 -->
<svg xmlns="http://www.w3.org/2000/svg" xml:space="preserve" width="15.875mm" height="15.875mm" version="1.1" style="shape-rendering:geometricPrecision; text-rendering:geometricPrecision; image-rendering:optimizeQuality; fill-rule:evenodd; clip-rule:evenodd"
viewBox="0 0 498 498"
 xmlns:xlink="http://www.w3.org/1999/xlink">
 <defs>
  <style type="text/css">
   <![CDATA[
    .fil1 {fill:#FEFEFE}
    .fil0 {fill:#2B2A29}
   ]]>
  </style>
 </defs>
 <g id="Layer_x0020_1">
  <metadata id="CorelCorpID_0Corel-Layer"/>
  <rect class="fil0" width="498" height="498"/>
  <path class="fil1" d="M248 116c-55,0 -106,4 -134,10 -18,4 -34,17 -37,36 -3,20 -7,50 -7,87 0,37 3,66 7,87 3,18 19,32 37,36 29,6 79,10 134,10 55,0 104,-4 134,-10 18,-4 34,-17 37,-36 3,-21 7,-51 8,-88 0,-37 -4,-67 -8,-88 -3,-18 -19,-32 -37,-36 -29,-4 -80,-8 -134,-8zm-45 66l0 133 116 -66 -116 -66z"/>
 </g>
</svg>
